<?xml version="1.0" encoding="utf-8"?>
<?xml-stylesheet type="text/xsl" href="rss1.xsl"?>
<rss version="2.0" xmlns:atom="http://www.w3.org/2005/Atom" xmlns:content="http://purl.org/rss/1.0/modules/content/" xmlns:dc="http://purl.org/dc/elements/1.1/" xmlns:media="http://search.yahoo.com/mrss/">
<channel>
 <title>Getty</title>
 <link>http://www.gettyimg.com/</link>
 <atom:link href="http://www.gettyimg.com/" rel="self" type="application/rss+xml" />

 
                <item>
                <title><![CDATA[【HD Live Performances】FEED - Blanca Paloma - EAEA (Rehearsal) 1080p MPEG-4 AAC LC 10-5-2023]]></title>
                <link><![CDATA[https://sharemania.us/threads/blanca-paloma-eaea-rehearsal-1080p-mpeg-4-aac-lc-10-5-2023.220784/]]></link>
                <description><![CDATA[<article>
<blockquote class="messageText SelectQuoteContainer ugc baseHtml">
<img src="https://images2.imgbox.com/87/e5/3lTGp7Pm_o.png" class="bbCodeImage LbImage" alt="[​IMG]" data-url="https://images2.imgbox.com/87/e5/3lTGp7Pm_o.png" style=""> <br>
<br>
vote for Spain!!<br>
<br>
<div class="ToggleTriggerAnchor bbCodeSpoilerContainer">
<button type="button" class="button bbCodeSpoilerButton ToggleTrigger Tooltip JsOnly" data-target="> .SpoilerTarget"><span>Spoiler: <span class="SpoilerTitle">MediaInfo</span></span></button>
<div class="SpoilerTarget bbCodeSpoilerText">General<br>
<br>
Complete name : /Users/fernando/Downloads/spain.mp4<br>
<br>
Format : MPEG-4<br>
<br>
Format profile : Base Media / Version 2<br>
<br>
Codec ID : mp42 (mp42/mp41)<br>
<br>
File size : 260 MiB<br>
<br>
Duration : 3 min 21 s<br>
<br>
Overall bit rate mode : Variable<br>
<br>
Overall bit rate : 10.8 Mb/s<br>
<br>
Frame rate : 25.000 FPS<br>
<br>
Encoded date : 2023-05-11 07:29:49 UTC<br>
<br>
Tagged date : 2023-05-11 07:29:51 UTC<br>
<br>
TIM : 00:00:00:00<br>
<br>
TSC : 25<br>
<br>
TSZ : 1<br>
<br>
<br>
Video<br>
<br>
ID : 1<br>
<br>
Format : AVC<br>
<br>
Format/Info : Advanced Video Codec<br>
<br>
Format profile : Main@L4.1<br>
<br>
Format settings : CABAC / 1 Ref Frames<br>
<br>
Format settings, CABAC : Yes<br>
<br>
Format settings, Reference frames : 1 frame<br>
<br>
Format settings, GOP : M=1, N=30<br>
<br>
Codec ID : avc1<br>
<br>
Codec ID/Info : Advanced Video Coding<br>
<br>
Duration : 3 min 21 s<br>
<br>
Bit rate : 10.5 Mb/s<br>
<br>
Width : 1 920 pixels<br>
<br>
Height : 1 080 pixels<br>
<br>
Display aspect ratio : 16:9<br>
<br>
Frame rate mode : Constant<br>
<br>
Frame rate : 25.000 FPS<br>
<br>
Standard : Component<br>
<br>
Color space : YUV<br>
<br>
Chroma subsampling : 4:2:0<br>
<br>
Bit depth : 8 bits<br>
<br>
Scan type : Progressive<br>
<br>
Bits/(Pixel*Frame) : 0.202<br>
<br>
Stream size : 252 MiB (97%)<br>
<br>
Language : English<br>
<br>
Encoded date : 2023-05-11 07:29:49 UTC<br>
<br>
Tagged date : 2023-05-11 07:29:49 UTC<br>
<br>
Color range : Limited<br>
<br>
Codec configuration box : avcC<br>
<br>
<br>
Audio<br>
<br>
ID : 2<br>
<br>
Format : AAC LC<br>
<br>
Format/Info : Advanced Audio Codec Low Complexity<br>
<br>
Codec ID : mp4a-40-2<br>
<br>
Duration : 3 min 21 s<br>
<br>
Source duration : 3 min 21 s<br>
<br>
Bit rate mode : Variable<br>
<br>
Bit rate : 317 kb/s<br>
<br>
Maximum bit rate : 402 kb/s<br>
<br>
Channel(s) : 2 channels<br>
<br>
Channel layout : L R<br>
<br>
Sampling rate : 48.0 kHz<br>
<br>
Frame rate : 46.875 FPS (1024 SPF)<br>
<br>
Compression mode : Lossy<br>
<br>
Stream size : 7.62 MiB (3%)<br>
<br>
Source stream size : 7.63 MiB (3%)<br>
<br>
Language : English<br>
<br>
Encoded date : 2023-05-11 07:29:49 UTC<br>
<br>
Tagged date : 2023-05-11 07:29:49 UTC</div>
</div><br>
<div class="bbCodeBlock bbCodeVfcHH HiddenContent">
<div class="attribution type">Hidden Content:</div>
<blockquote>You must reply before you can see the hidden data contained here.</blockquote>
</div>
<div class="messageTextEndMarker">&nbsp;</div>
</blockquote>
</article>]]></description>
                <author><![CDATA[plantas]]></author>
                </item>

                </channel></rss>